<svg xmlns="http://www.w3.org/2000/svg" viewBox="0 0 150 150" width="150" height="150">
  <rect width="150" height="150" fill="#BFE8FA" />

  <path d="M18,150 L18,132 Q75,106 132,132 L132,150 Z" fill="#2E86DE" />
  <path d="M60,132 L75,144 L90,132 L84,122 L66,122 Z" fill="#FFFFFF" />

  <rect x="62" y="96" width="26" height="26" rx="6" fill="#F5C518" />

  <circle cx="75" cy="68" r="45" fill="#F5C518" />

  <circle cx="56" cy="66" r="6" fill="#232323" />
  <circle cx="94" cy="66" r="6" fill="#232323" />
  <circle cx="54" cy="63.5" r="1.8" fill="#FFFFFF" />
  <circle cx="92" cy="63.5" r="1.8" fill="#FFFFFF" />

  <ellipse cx="48" cy="80" rx="7.5" ry="4.5" fill="#FF9EB0" opacity="0.55" />
  <ellipse cx="102" cy="80" rx="7.5" ry="4.5" fill="#FF9EB0" opacity="0.55" />

  <path d="M56,86 Q75,100 94,86" stroke="#232323" stroke-width="4" fill="none" stroke-linecap="round" />

  <path
    d="M28,58 Q26,24 75,20 Q124,24 122,58 Q116,36 100,32 Q92,50 75,38 Q58,50 50,32 Q34,36 28,58 Z"
    fill="#1B1B1F"
  />
  <path d="M70,20 Q75,8 82,19 Q77,16 70,20 Z" fill="#1B1B1F" />
</svg>
